<svg width="26" height="26" viewBox="0 0 26 26" fill="none" xmlns="http://www.w3.org/2000/svg">
<path fill-rule="evenodd" clip-rule="evenodd" d="M13.5143 14.9232C13.3573 14.9736 13.1802 15 13 15C12.8198 15 12.6427 14.9736 12.4857 14.9232C12.3288 14.8729 12.1972 14.8004 12.1038 14.7127L12.1028 14.7117L9.14331 11.8982L9.14047 11.8954C9.04895 11.8052 9.00052 11.7028 9 11.5986C8.99949 11.4944 9.04691 11.3919 9.13755 11.3013C9.22819 11.2108 9.35888 11.1353 9.51663 11.0824C9.67437 11.0296 9.85368 11.0012 10.0367 11L10.0405 11L15.9633 11C16.1463 11.0012 16.3256 11.0296 16.4834 11.0824C16.6411 11.1353 16.7718 11.2108 16.8625 11.3013C16.9531 11.3919 17.0005 11.4944 17 11.5986C16.9995 11.7028 16.9511 11.8052 16.8595 11.8954L16.8567 11.8982L13.8962 14.7127C13.8028 14.8004 13.6712 14.8729 13.5143 14.9232ZM13 14.602C13.0601 14.602 13.1191 14.5932 13.1714 14.5765C13.2235 14.5598 13.2672 14.5357 13.2983 14.5067L16.2555 11.6953C16.2853 11.6655 16.301 11.6318 16.3012 11.5975C16.3014 11.5627 16.2856 11.5286 16.2553 11.4984C16.2251 11.4682 16.1816 11.443 16.129 11.4254C16.0769 11.408 16.0177 11.3985 15.9572 11.398L10.0428 11.398C9.98232 11.3985 9.92314 11.408 9.87102 11.4254C9.81844 11.443 9.77487 11.4682 9.74466 11.4984C9.71445 11.5286 9.69864 11.5627 9.69881 11.5975C9.69898 11.6318 9.71471 11.6655 9.74447 11.6953L12.7013 14.5063C12.7014 14.5064 12.7015 14.5065 12.7017 14.5067C12.7328 14.5357 12.7765 14.5598 12.8286 14.5765C12.8809 14.5932 12.9399 14.602 13 14.602Z" fill="#8fa847"/>
<path d="M13.1714 14.5765C13.1191 14.5932 13.0601 14.602 13 14.602C12.9399 14.602 12.8809 14.5932 12.8286 14.5765C12.7765 14.5598 12.7328 14.5357 12.7017 14.5067C12.7015 14.5065 12.7014 14.5064 12.7013 14.5063L9.74447 11.6953C9.71471 11.6655 9.69898 11.6318 9.69881 11.5975C9.69864 11.5627 9.71445 11.5286 9.74466 11.4984C9.77487 11.4682 9.81844 11.443 9.87102 11.4254C9.92314 11.408 9.98232 11.3985 10.0428 11.398L15.9572 11.398C16.0177 11.3985 16.0769 11.408 16.129 11.4254C16.1816 11.443 16.2251 11.4682 16.2553 11.4984C16.2856 11.5286 16.3014 11.5627 16.3012 11.5975C16.301 11.6318 16.2853 11.6655 16.2555 11.6953L13.2983 14.5067C13.2672 14.5357 13.2235 14.5598 13.1714 14.5765Z" fill="#8fa847"/>
</svg>
